<?xml version="1.0" ?><!DOCTYPE svg  PUBLIC '-//W3C//DTD SVG 1.1//EN'  'http://www.w3.org/Graphics/SVG/1.1/DTD/svg11.dtd'><svg xmlns="http://www.w3.org/2000/svg" xmlns:xlink="http://www.w3.org/1999/xlink" version="1.1" id="Layer_1" width="512px" height="512px" viewBox="0 0 512 512" enable-background="new 0 0 512 512" xml:space="preserve"><path d="M427.475,84.525C381.673,38.724,320.775,13.5,256,13.5S130.327,38.724,84.525,84.525S13.5,191.225,13.5,256  c0,53.814,18.087,106.475,51.021,148.802V486c0,4.322,2.233,8.338,5.905,10.619c2.013,1.25,4.3,1.881,6.596,1.881  c1.892,0,3.789-0.43,5.54-1.295l57.247-28.312C175.278,488.282,215.302,498.5,256,498.5c64.775,0,125.673-25.224,171.475-71.025  S498.5,320.775,498.5,256S473.276,130.327,427.475,84.525z M256,473.5c-38.552,0-76.415-10.214-109.498-29.538  c-1.943-1.135-4.121-1.706-6.305-1.706c-1.894,0-3.792,0.43-5.541,1.295l-45.136,22.322v-65.426c0-2.86-0.981-5.635-2.78-7.859  C55.632,354.116,38.5,305.608,38.5,256c0-119.93,97.57-217.5,217.5-217.5S473.5,136.07,473.5,256S375.93,473.5,256,473.5z   M118.904,196.001c-4.881-4.881-4.882-12.796,0-17.678l23.309-23.309c8.561-8.562,19.978-13.276,32.147-13.276  s23.587,4.715,32.147,13.276l23.309,23.309c4.882,4.882,4.881,12.797,0,17.678c-2.441,2.44-5.641,3.661-8.839,3.661  c-3.199,0-6.398-1.221-8.839-3.661l-23.309-23.309c-3.839-3.84-8.978-5.954-14.47-5.954s-10.631,2.114-14.47,5.954l-23.309,23.309  C131.701,200.882,123.787,200.884,118.904,196.001z M393.1,178.323c4.882,4.882,4.882,12.796,0,17.678  c-4.881,4.881-12.797,4.881-17.678,0l-23.309-23.309c-3.84-3.84-8.979-5.954-14.47-5.954c-5.492,0-10.631,2.114-14.47,5.954  l-23.309,23.309c-2.44,2.44-5.64,3.661-8.839,3.661s-6.397-1.22-8.839-3.661c-4.881-4.881-4.882-12.796,0-17.678l23.309-23.309  c8.561-8.562,19.978-13.276,32.147-13.276c12.169,0,23.586,4.715,32.147,13.276L393.1,178.323z M391.186,306.888  c4.88,4.866,4.88,12.754,0,17.619c-2.44,2.432-5.638,3.649-8.836,3.649s-6.397-1.217-8.836-3.649l-5.86-5.842  c-9.34,16.67-22.334,31.056-38.252,42.199c-21.584,15.11-46.978,23.097-73.438,23.097s-51.854-7.987-73.438-23.097  c-15.917-11.143-28.911-25.529-38.252-42.199l-5.86,5.842c-2.44,2.432-5.638,3.649-8.836,3.649c-3.198,0-6.397-1.217-8.836-3.649  c-4.88-4.866-4.88-12.754,0-17.619l36.906-36.794c4.88-4.865,12.793-4.865,17.673,0c4.88,4.866,4.88,12.754,0,17.619l-12.493,12.455  c16.844,35.517,53.32,58.876,93.137,58.876c39.816,0,76.293-23.359,93.137-58.876l-12.493-12.455c-4.88-4.866-4.88-12.754,0-17.619  c4.88-4.865,12.793-4.865,17.673,0L391.186,306.888z"/></svg>